<?xml version="1.0" encoding="UTF-8" standalone="no"?>
<!-- Created with Inkscape (http://www.inkscape.org/) -->

<svg
   width="149.99998mm"
   height="155mm"
   viewBox="0 0 149.99998 155"
   version="1.1"
   id="svg140670"
   inkscape:version="1.2.2 (b0a8486541, 2022-12-01)"
   sodipodi:docname="development.svg"
   xmlns:inkscape="http://www.inkscape.org/namespaces/inkscape"
   xmlns:sodipodi="http://sodipodi.sourceforge.net/DTD/sodipodi-0.dtd"
   xmlns:xlink="http://www.w3.org/1999/xlink"
   xmlns="http://www.w3.org/2000/svg"
   xmlns:svg="http://www.w3.org/2000/svg">
  <sodipodi:namedview
     id="namedview140672"
     pagecolor="#ffffff"
     bordercolor="#999999"
     borderopacity="1"
     inkscape:showpageshadow="0"
     inkscape:pageopacity="0"
     inkscape:pagecheckerboard="0"
     inkscape:deskcolor="#d1d1d1"
     inkscape:document-units="mm"
     showgrid="false"
     inkscape:zoom="0.53480902"
     inkscape:cx="229.98864"
     inkscape:cy="636.67587"
     inkscape:window-width="1920"
     inkscape:window-height="1005"
     inkscape:window-x="0"
     inkscape:window-y="29"
     inkscape:window-maximized="1"
     inkscape:current-layer="svg140670" />
  <defs
     id="defs140667">
    <linearGradient
       inkscape:collect="always"
       id="linearGradient144477">
      <stop
         style="stop-color:#ff6b9a;stop-opacity:1;"
         offset="0"
         id="stop144473" />
      <stop
         style="stop-color:#ff9f43;stop-opacity:0.22745098;"
         offset="1"
         id="stop144475" />
    </linearGradient>
    <linearGradient
       inkscape:collect="always"
       id="linearGradient144455">
      <stop
         style="stop-color:#ff6b9a;stop-opacity:1;"
         offset="0"
         id="stop144451" />
      <stop
         style="stop-color:#ff9f43;stop-opacity:1;"
         offset="1"
         id="stop144453" />
    </linearGradient>
    <linearGradient
       inkscape:collect="always"
       id="linearGradient144447">
      <stop
         style="stop-color:#ff6b9a;stop-opacity:1;"
         offset="0"
         id="stop144443" />
      <stop
         style="stop-color:#ff9f43;stop-opacity:0.18039216;"
         offset="1"
         id="stop144445" />
    </linearGradient>
    <linearGradient
       inkscape:collect="always"
       xlink:href="#linearGradient144447"
       id="linearGradient144449"
       x1="153.24059"
       y1="115.33903"
       x2="153.24059"
       y2="218.09447"
       gradientUnits="userSpaceOnUse"
       gradientTransform="translate(-29.999999,-64.999998)" />
    <radialGradient
       inkscape:collect="always"
       xlink:href="#linearGradient144455"
       id="radialGradient144457"
       cx="103.77788"
       cy="159.40889"
       fx="103.77788"
       fy="159.40889"
       r="11.077211"
       gradientTransform="matrix(7.7521311,0,0,4.2547777,-730.64028,-592.1254)"
       gradientUnits="userSpaceOnUse" />
    <linearGradient
       inkscape:collect="always"
       xlink:href="#linearGradient144477"
       id="linearGradient144479"
       x1="51.102135"
       y1="153.33841"
       x2="51.102135"
       y2="64.188965"
       gradientUnits="userSpaceOnUse"
       gradientTransform="translate(-29.999999,-64.999998)" />
  </defs>
  <path
     id="path144469"
     style="font-size:141.111px;font-family:Monoton;-inkscape-font-specification:Monoton;text-align:center;text-anchor:middle;fill:url(#linearGradient144479);fill-opacity:1;stroke-width:100;stroke-linecap:round;stroke-linejoin:round;stroke-miterlimit:3.8;paint-order:stroke fill markers"
     d="m 40.680958,2.3762508 c -5.604011,0 -10.794986,1.309141 -15.572176,3.927409 -4.731256,2.618267 -8.589777,6.4767892 -11.575521,11.5755212 -2.93981,5.098731 -4.4095498,10.955413 -4.4095498,17.569991 v 26.52706 c 0,0.87276 -0.0917,1.76849 -0.275435,2.68717 l 4.9609368,0.55139 c 0.183739,-0.87276 0.275436,-1.9524 0.275436,-3.23856 v -26.52706 c 0,-8.451958 2.595487,-15.249959 7.786088,-20.394625 5.1906,-5.1446662 11.437385,-7.7173582 18.740975,-7.7173582 h 8.268229 v -4.960938 z m 0.137459,9.9218752 c -6.017422,0 -11.161772,2.090377 -15.433683,6.270418 -4.225976,4.180042 -6.339148,9.806706 -6.339148,16.880628 v 26.52706 c 0,0.78088 -0.229501,2.38895 -0.688847,4.82348 l 4.616256,2.34249 c 0.689017,-2.48046 1.033529,-4.86925 1.033529,-7.16597 v -26.52706 c 0,-5.695887 1.607544,-10.151214 4.822961,-13.36663 3.215417,-3.215417 7.166152,-4.823478 11.851473,-4.823478 h 8.198983 v -4.960938 z m -0.137459,9.921875 c -3.307285,0 -6.086684,1.171337 -8.337476,3.513998 -2.250791,2.34266 -3.376021,5.58106 -3.376021,9.715173 v 26.52706 c 0,3.90443 -0.597324,7.39565 -1.791622,10.47326 l 3.78995,3.65197 c 1.975184,-4.31784 2.96261,-9.0265 2.96261,-14.12523 v -26.52706 c 0,-2.57234 0.620119,-4.593295 1.860351,-6.0632 1.240232,-1.469904 2.802187,-2.205033 4.685502,-2.205033 h 8.405689 v -4.960938 z" />
  <path
     id="path144463"
     style="font-size:141.111px;font-family:Monoton;-inkscape-font-specification:Monoton;text-align:center;text-anchor:middle;fill:#ff9f43;fill-opacity:1;stroke-width:100;stroke-linecap:round;stroke-linejoin:round;stroke-miterlimit:3.8;paint-order:stroke fill markers"
     d="m 0.58004722,67.213122 v 4.96094 H 6.0918552 c 3.031678,0 5.9027738,0.57401 8.6129108,1.72237 2.756071,1.10243 5.190441,2.68718 7.30343,4.75423 2.112988,2.06705 3.789952,4.70813 5.030184,7.92355 1.286167,3.21542 1.929081,6.77553 1.929081,10.67997 v 20.946008 c 0,4.13411 1.12523,7.37251 3.376021,9.71517 2.250792,2.34266 5.030191,3.51399 8.337476,3.51399 h 8.198983 v -4.96093 h -8.405689 c -1.883315,0 -3.44527,-0.73462 -4.685502,-2.20452 -1.240232,-1.46991 -1.860351,-3.49138 -1.860351,-6.06371 V 97.254182 c 0,-4.54752 -0.780719,-8.72776 -2.342493,-12.54032 -1.515839,-3.8585 -3.582904,-7.05079 -6.201172,-9.57719 -2.572333,-2.5264 -5.535126,-4.47846 -8.888346,-5.85649 -3.35322,-1.37804 -6.8672308,-2.06706 -10.5419918,-2.06706 z m 0,9.92187 v 4.96094 H 6.2985612 c 3.7206958,0 6.7757018,1.30914 9.1642978,3.92741 2.388595,2.61826 3.582727,6.36178 3.582727,11.23084 v 20.946008 c 0,7.07392 2.113172,12.7011 6.339148,16.88114 4.271911,4.18004 9.416261,6.2699 15.433683,6.2699 h 8.061524 v -4.96094 h -8.198983 c -4.685321,0 -8.636056,-1.60754 -11.851473,-4.82296 -3.215417,-3.21542 -4.822961,-7.67126 -4.822961,-13.36714 V 97.254182 c 0,-6.24709 -1.74535,-11.16194 -5.236373,-14.74484 -3.491024,-3.58289 -7.717368,-5.37435 -12.6782958,-5.37435 z m 0,9.92188 v 4.96094 H 5.6784432 c 1.102429,0 1.952567,0.3673 2.549716,1.10225 0.597148,0.68902 0.895552,2.06706 0.895552,4.13412 v 20.946008 c 0,6.61457 1.4697398,12.47126 4.4095498,17.56998 2.985744,5.09874 6.844265,8.95726 11.575521,11.57552 4.77719,2.61828 9.968165,3.92741 15.572176,3.92741 h 8.198983 v -4.96093 h -8.268229 c -7.30359,0 -13.550375,-2.57218 -18.740975,-7.71685 -5.190601,-5.14466 -7.786088,-11.94318 -7.786088,-20.39513 V 97.254182 c 0,-3.39916 -0.780719,-5.94853 -2.342493,-7.64811 -1.561774,-1.69958 -3.5143458,-2.5492 -5.8570068,-2.5492 z" />
  <path
     d="M 84.843011,71.695482 H 62.688589 v -21.8722 h 22.154422 z m 0,47.695518 -14.25221,24.69442 H 62.688589 L 73.695251,121.50766 H 62.688589 V 99.494352 h 22.154422 z"
     style="font-size:141.111px;font-family:UnYetgul;-inkscape-font-specification:UnYetgul;text-align:center;text-anchor:middle;fill:url(#radialGradient144457);fill-opacity:1;stroke-width:100;stroke-linecap:round;stroke-linejoin:round;stroke-miterlimit:3.8;paint-order:stroke fill markers"
     id="path144421" />
  <path
     id="path144439"
     style="font-size:141.111px;font-family:Monoton;-inkscape-font-specification:Monoton;text-align:center;text-anchor:middle;fill:#ff9f43;fill-opacity:1;stroke-width:100;stroke-linecap:round;stroke-linejoin:round;stroke-miterlimit:3.8;paint-order:stroke fill markers"
     d="m 98.861391,2.3762508 v 4.960938 h 8.268219 c 7.3036,0 13.55089,2.572692 18.7415,7.7173582 5.1906,5.144666 7.78557,11.942667 7.78557,20.394625 v 20.946 c 0,3.39916 0.78123,5.94854 2.34301,7.64812 1.56177,1.69957 3.51382,2.54971 5.85649,2.54971 h 5.30562 v -4.96094 h -5.09892 c -1.10242,0 -1.95204,-0.34451 -2.5492,-1.03352 -0.59714,-0.73496 -0.89607,-2.13631 -0.89607,-4.20337 v -20.946 c 0,-6.614578 -1.49253,-12.47126 -4.47827,-17.569991 -2.93982,-5.098732 -6.79834,-8.9572542 -11.57553,-11.5755212 -4.73125,-2.618268 -9.89891,-3.927409 -15.50293,-3.927409 z m 0,9.9218752 v 4.960938 h 8.199489 c 4.68533,0 8.63554,1.608061 11.85096,4.823478 3.21542,3.215416 4.82296,7.670743 4.82296,13.36663 v 20.946 c 0,6.2471 1.74587,11.16246 5.23689,14.74536 3.49103,3.58289 7.71685,5.37435 12.67778,5.37435 h 5.51233 v -4.96094 h -5.71903 c -3.7207,0 -6.77519,-1.30914 -9.16379,-3.92741 -2.38859,-2.61826 -3.58324,-6.36229 -3.58324,-11.23136 v -20.946 c 0,-7.073922 -2.13597,-12.700586 -6.40788,-16.880628 -4.22597,-4.180041 -9.34753,-6.270418 -15.36495,-6.270418 z m 0,9.921875 v 4.960938 h 8.406199 c 1.88331,0 3.44475,0.735129 4.68499,2.205033 1.24023,1.469905 1.86035,3.49086 1.86035,6.0632 v 20.946 c 0,4.54752 0.75792,8.75055 2.27376,12.60905 1.56177,3.81257 3.62884,6.98207 6.20117,9.50847 2.61827,2.5264 5.60438,4.47897 8.95759,5.857 3.35323,1.37804 6.86723,2.06706 10.542,2.06706 h 5.37435 v -4.96094 h -5.51233 c -3.03168,0 -5.92557,-0.55122 -8.68164,-1.65364 -2.71014,-1.14837 -5.12171,-2.75643 -7.2347,-4.82348 -2.11298,-2.06705 -3.81275,-4.70813 -5.09891,-7.92355 -1.24024,-3.21541 -1.86036,-6.77553 -1.86036,-10.67997 v -20.946 c 0,-4.134113 -1.12523,-7.372513 -3.37602,-9.715173 -2.25079,-2.342661 -5.02967,-3.513998 -8.33696,-3.513998 z" />
  <path
     id="path144433"
     style="font-size:141.111px;font-family:Monoton;-inkscape-font-specification:Monoton;text-align:center;text-anchor:middle;fill:url(#linearGradient144449);fill-opacity:1;stroke-width:100;stroke-linecap:round;stroke-linejoin:round;stroke-miterlimit:3.8;paint-order:stroke fill markers"
     d="m 116.77605,77.548402 c -1.97518,4.31785 -2.96312,9.02599 -2.96312,14.12472 v 26.527068 c 0,2.57233 -0.62012,4.5938 -1.86035,6.06371 -1.24024,1.4699 -2.80168,2.20452 -4.68499,2.20452 h -8.406199 v 4.96093 h 8.199489 c 3.30729,0 6.08617,-1.17133 8.33696,-3.51399 2.25079,-2.34266 3.37602,-5.58106 3.37602,-9.71517 V 91.673122 c 0,-3.90443 0.59733,-7.39565 1.79163,-10.47326 z m 7.99228,6.95875 c -0.68902,2.48047 -1.03353,4.86925 -1.03353,7.16597 v 26.527068 c 0,5.69588 -1.60754,10.15172 -4.82296,13.36714 -3.21542,3.21542 -7.16563,4.82296 -11.85096,4.82296 h -8.199489 v 4.96094 h 8.061519 c 6.01742,0 11.13898,-2.08986 15.36495,-6.2699 4.27191,-4.18004 6.40788,-9.80722 6.40788,-16.88114 V 91.673122 c 0,-0.78088 0.23002,-2.38843 0.68936,-4.82296 z m 9.1643,3.92741 c -0.18373,0.87276 -0.27595,1.9524 -0.27595,3.23856 v 26.527068 c 0,8.45195 -2.59497,15.25047 -7.78557,20.39513 -5.19061,5.14467 -11.4379,7.71685 -18.7415,7.71685 h -8.268219 v 4.96093 h 8.199489 c 5.60402,0 10.77168,-1.30913 15.50293,-3.92741 4.77719,-2.61826 8.63571,-6.47678 11.57553,-11.57552 2.98574,-5.09872 4.47827,-10.95541 4.47827,-17.56998 V 91.673122 c 0,-0.87275 0.0922,-1.76848 0.27596,-2.68717 z" />
</svg>
