<?xml version="1.0" encoding="UTF-8" standalone="no"?>
<!-- Created with Inkscape (http://www.inkscape.org/) -->

<svg
   width="200mm"
   height="160mm"
   viewBox="0 0 200 160"
   version="1.1"
   id="svg5"
   xml:space="preserve"
   inkscape:export-filename="logo.svg"
   inkscape:export-xdpi="90"
   inkscape:export-ydpi="90"
   xmlns:inkscape="http://www.inkscape.org/namespaces/inkscape"
   xmlns:sodipodi="http://sodipodi.sourceforge.net/DTD/sodipodi-0.dtd"
   xmlns:xlink="http://www.w3.org/1999/xlink"
   xmlns="http://www.w3.org/2000/svg"
   xmlns:svg="http://www.w3.org/2000/svg"><sodipodi:namedview
     id="namedview7"
     pagecolor="#ffffff"
     bordercolor="#999999"
     borderopacity="1"
     inkscape:showpageshadow="0"
     inkscape:pageopacity="0"
     inkscape:pagecheckerboard="0"
     inkscape:deskcolor="#d1d1d1"
     inkscape:document-units="mm"
     showgrid="false" /><defs
     id="defs2"><inkscape:path-effect
       effect="fillet_chamfer"
       id="path-effect2650"
       is_visible="true"
       lpeversion="1"
       nodesatellites_param="F,0,0,1,0,0,0,1 @ F,0,0,1,0,6.8480436,0,1 @ F,0,0,1,0,0,0,1 @ F,0,0,1,0,7.688525,0,1 @ F,0,0,1,0,4.9321293,0,1 @ F,0,0,1,0,3.3626437,0,1 @ F,0,0,1,0,4.963444,0,1 @ F,0,0,1,0,2,0,1 @ F,0,0,1,0,2,0,1 @ F,0,0,1,0,2,0,1 @ F,0,0,1,0,3.1988302,0,1 @ F,0,0,1,0,2.2823602,0,1 @ F,0,0,1,0,2,0,1 @ F,0,0,1,0,2,0,1 @ F,0,0,1,0,0,0,1"
       unit="px"
       method="auto"
       mode="F"
       radius="0"
       chamfer_steps="1"
       flexible="false"
       use_knot_distance="true"
       apply_no_radius="true"
       apply_with_radius="true"
       only_selected="false"
       hide_knots="false" /><linearGradient
       inkscape:collect="always"
       id="linearGradient1920"><stop
         style="stop-color:#beceff;stop-opacity:1;"
         offset="0.04724455"
         id="stop5378" /><stop
         style="stop-color:#7693ff;stop-opacity:1;"
         offset="0.25349814"
         id="stop1916" /><stop
         style="stop-color:#a981ff;stop-opacity:1;"
         offset="0.61647666"
         id="stop1918" /><stop
         style="stop-color:#38235b;stop-opacity:1;"
         offset="1"
         id="stop5376" /></linearGradient><linearGradient
       inkscape:collect="always"
       id="linearGradient1059"><stop
         style="stop-color:#00e9b2;stop-opacity:1;"
         offset="0.11565676"
         id="stop1055" /><stop
         style="stop-color:#1fd3c5;stop-opacity:1;"
         offset="0.65175533"
         id="stop4644" /><stop
         style="stop-color:#6ca1f3;stop-opacity:1;"
         offset="0.85759825"
         id="stop4646" /><stop
         style="stop-color:#a981ff;stop-opacity:1;"
         offset="1"
         id="stop1057" /></linearGradient><inkscape:path-effect
       effect="fillet_chamfer"
       id="path-effect981"
       is_visible="true"
       lpeversion="1"
       nodesatellites_param="F,0,0,1,0,7.7961825,0,1 @ F,0,0,1,0,0,0,1 @ F,0,0,1,0,0,0,1 @ F,0,0,1,0,1.9728221,0,1 @ F,0,0,1,0,3.7843825,0,1 @ F,0,0,1,0,0,0,1 @ F,0,0,1,0,4.2672211,0,1 @ F,0,0,1,0,4.8876522,0,1 @ F,0,0,1,0,0,0,1 @ F,0,0,1,0,9.6896418,0,1"
       unit="px"
       method="auto"
       mode="F"
       radius="0"
       chamfer_steps="1"
       flexible="false"
       use_knot_distance="true"
       apply_no_radius="true"
       apply_with_radius="true"
       only_selected="false"
       hide_knots="false" /><linearGradient
       inkscape:collect="always"
       xlink:href="#linearGradient1059"
       id="linearGradient1061"
       x1="16.595575"
       y1="72.147987"
       x2="96.966446"
       y2="162.24339"
       gradientUnits="userSpaceOnUse"
       spreadMethod="pad"
       gradientTransform="translate(-3.8394323)" /><linearGradient
       inkscape:collect="always"
       xlink:href="#linearGradient1920"
       id="linearGradient1922"
       x1="115.06966"
       y1="80.123985"
       x2="206.02858"
       y2="229.17625"
       gradientUnits="userSpaceOnUse"
       gradientTransform="translate(-3.8394323)" /></defs><g
     inkscape:groupmode="layer"
     id="layer2"
     inkscape:label="F"
     transform="translate(-10,-69.999998)"><path
       style="mix-blend-mode:normal;fill:url(#linearGradient1061);fill-opacity:1;stroke:none;stroke-width:0.423;stroke-linecap:round;stroke-linejoin:round;stroke-miterlimit:3.8;paint-order:stroke fill markers"
       d="m 16.114864,195.53347 22.26825,12.85658 v -55.92213 l 31.931279,18.01511 a 1.5294233,1.5294233 157.2155 0 0 2.22883,-0.9362 l 5.774646,-21.55127 a 4.5039434,4.5039434 64.961763 0 0 -2.452477,-5.2502 L 38.442643,125.35562 v -20.21327 a 4.2672211,4.2672211 135 0 1 4.267221,-4.26722 h 89.513596 a 6.369711,6.369711 142.49999 0 0 6.15267,-4.72111 l 7.28971,-27.205604 H 19.096982 A 9.6931308,9.6931308 135.01031 0 0 9.4038523,78.638057 L 9.3659784,183.8392 a 13.497772,13.497772 60.010313 0 0 6.7488856,11.69427 z"
       id="path979"
       inkscape:path-effect="#path-effect981"
       inkscape:original-d="m 9.3631717,191.63538 29.0199423,16.75467 v -55.92213 l 33.649505,18.98451 7.26472,-27.1123 -40.854696,-18.98451 v -24.48049 h 98.668467 l 8.55473,-31.926714 H 9.4073407 Z"
       sodipodi:nodetypes="ccccccccccc" /></g><g
     inkscape:groupmode="layer"
     id="layer3"
     inkscape:label="W"
     transform="translate(-10,-69.999998)"><path
       style="fill:url(#linearGradient1922);fill-opacity:1;stroke:none;stroke-width:0.423;stroke-linecap:round;stroke-linejoin:round;stroke-miterlimit:3.8;paint-order:stroke fill markers"
       d="m 52.228407,213.08812 21.874282,15.20784 a 8.1889311,8.1889311 174.90425 0 0 10.464983,-0.93319 l 18.376848,-18.37685 17.83306,17.83307 a 10.485032,10.485032 8.747945 0 0 12.25616,1.88595 l 32.64171,-16.99518 a 11.200888,11.200888 128.73036 0 0 5.6483,-7.04257 L 206.72233,72.232949 a 2.5818865,2.5818865 52.482425 0 0 -2.49432,-3.248598 h -27.0059 a 6.468486,6.468486 142.5 0 0 -6.24807,4.794319 l -29.74073,110.99392 a 4.8284242,4.8284242 127.50001 0 1 -2.24969,2.93185 l -8.11377,4.68448 a 2.6064519,2.6064519 7.5000118 0 1 -3.14626,-0.41421 l -9.90268,-9.90268 a 3.4641018,3.4641018 74.999999 0 1 -0.89657,-3.34606 l 13.46079,-50.23638 a 2.4545489,2.4545489 52.499999 0 0 -2.37091,-3.08983 h -26.62739 a 2.9744295,2.9744295 142.5 0 0 -2.87308,2.20459 l -13.724117,51.21912 a 7.4641011,7.4641011 120 0 1 -1.931852,3.34606 l -9.009361,9.00937 a 2.3238282,2.3238282 175.71689 0 1 -3.023301,0.22642 L 52.278122,177.71441 Z"
       id="path1914"
       sodipodi:nodetypes="cccccccccccccccc"
       inkscape:path-effect="#path-effect2650"
       inkscape:original-d="m 52.228407,213.08812 27.496967,19.11695 23.219146,-23.21915 23.26967,23.26968 43.83595,-22.82356 37.54051,-140.447689 h -35.33198 l -31.543,117.720089 -11.57787,6.68448 -12.7311,-12.7311 14.80635,-55.25806 H 99.104468 l -14.832473,55.35556 -11.837789,11.83779 -20.156084,-14.8787 z" /></g></svg>
